<svg width="90.9357" height="26" viewBox="72.5321 25 90.9357 26" fill="none" xmlns="http://www.w3.org/2000/svg">
<g clip-path="url(#clip0_868_11571)">
<path fill-rule="evenodd" clip-rule="evenodd" d="M108.478 44.7201C110.206 44.8439 112.22 43.5013 112.929 42.7348C115.396 40.0662 115.455 36.2074 112.972 33.4127C112.049 32.3724 109.878 31.2226 108.504 31.3845H103.531V44.7035L108.49 44.7201H108.478ZM106.335 41.8349V34.253C107.114 34.2019 107.895 34.2019 108.673 34.253C109.286 34.324 109.87 34.5502 110.37 34.91C113.227 36.862 112.037 41.516 108.625 41.8278C107.863 41.8814 107.098 41.8838 106.335 41.8349Z" fill="#008CEB"/>
<path fill-rule="evenodd" clip-rule="evenodd" d="M152.134 44.7443H154.969V41.8734H160.595L160.611 44.73H163.446V39.9975C163.446 38.5692 163.565 36.7886 163.208 35.496C162.884 34.3126 162.182 33.2678 161.208 32.521C160.235 31.7741 159.043 31.3662 157.816 31.3595C156.589 31.3527 155.394 31.7475 154.412 32.4836C153.431 33.2197 152.717 34.2567 152.379 35.4365C151.999 36.7124 152.127 38.543 152.127 39.9594C152.127 41.5592 152.11 43.1684 152.127 44.7681L152.134 44.7443ZM154.972 38.9858C154.955 37.7956 154.829 36.522 155.388 35.6055C155.634 35.1835 155.987 34.8341 156.411 34.5929C156.836 34.3516 157.316 34.2271 157.805 34.2319C158.29 34.2355 158.767 34.3651 159.187 34.6079C159.608 34.8507 159.958 35.1986 160.204 35.6174C160.756 36.5696 160.626 37.7599 160.611 38.9882L154.972 38.9858Z" fill="#008CEB"/>
<path fill-rule="evenodd" clip-rule="evenodd" d="M119.712 44.7418H122.537C122.537 44.1419 122.461 42.3065 122.563 41.8709H128.167L128.186 44.7394H131.017C131.002 43.1492 131.017 41.5614 131.017 39.9784C131.017 38.6215 131.143 36.679 130.779 35.4744C130.452 34.2926 129.749 33.2498 128.775 32.5047C127.801 31.7596 126.611 31.353 125.385 31.3468C124.159 31.3406 122.964 31.7351 121.983 32.4703C121.002 33.2056 120.288 34.2412 119.95 35.4197C119.571 36.6575 119.7 38.5501 119.7 39.9284C119.7 41.5186 119.664 43.1492 119.7 44.7346L119.712 44.7418ZM122.54 38.9857C122.521 37.7954 122.399 36.5052 122.959 35.6077C123.204 35.1869 123.556 34.8377 123.978 34.595C124.401 34.3524 124.879 34.2247 125.367 34.2247C125.854 34.2247 126.332 34.3524 126.755 34.595C127.177 34.8377 127.529 35.1869 127.774 35.6077C128.329 36.5599 128.196 37.7692 128.186 38.9809L122.54 38.9857Z" fill="#008CEB"/>
<path fill-rule="evenodd" clip-rule="evenodd" d="M135.99 36.5867L135.949 38.5697C135.949 40.236 135.868 43.3474 135.949 44.7019H138.72C138.784 43.7497 138.62 36.9866 138.794 36.77C138.794 35.456 140.167 34.2324 141.553 34.2276C142.273 34.2233 142.966 34.5 143.486 34.9989C143.838 35.3203 144.378 36.0535 144.369 36.7938C144.497 36.8676 144.395 43.9354 144.436 44.7185H147.209L147.187 36.6367C147.256 36.0035 146.876 35.0251 146.63 34.5299C146.176 33.5865 145.466 32.7892 144.581 32.2284C143.697 31.6675 142.673 31.3656 141.626 31.3566C140.579 31.3477 139.55 31.6322 138.656 32.1779C137.762 32.7236 137.039 33.5087 136.568 34.4442C136.33 34.9322 135.93 35.9368 135.99 36.5867Z" fill="#008CEB"/>
<path d="M85.5321 51C92.7118 51 98.5321 45.1797 98.5321 38C98.5321 30.8203 92.7118 25 85.5321 25C78.3524 25 72.5321 30.8203 72.5321 38C72.5321 45.1797 78.3524 51 85.5321 51Z" fill="#008CEB"/>
<path d="M93.107 38.0546V41.7135C93.107 41.9515 93.0046 42.0015 92.8047 41.8849C92.5372 41.7244 92.2588 41.5828 91.9715 41.4612C91.1039 41.1155 90.1641 40.9904 89.2363 41.0969C88.2236 41.2283 87.2297 41.4776 86.2749 41.8397C85.3227 42.161 84.3895 42.5086 83.4183 42.7776C82.6138 43.0165 81.7767 43.1265 80.9378 43.1037C80.0081 43.0676 79.1046 42.7859 78.3192 42.2872C78.2206 42.2278 78.1396 42.143 78.0847 42.0417C78.0299 41.9404 78.0032 41.8262 78.0074 41.7111C78.0074 39.3147 78.0074 36.9183 78.0074 34.5219C78.0074 34.4053 78.0074 34.2672 78.1121 34.2077C78.2169 34.1482 78.324 34.2458 78.4145 34.3053C79.2673 34.882 80.2774 35.1813 81.3068 35.1623C82.0428 35.1321 82.7707 34.9966 83.4683 34.76C84.4586 34.4529 85.4156 34.0458 86.3892 33.7007C87.1471 33.4094 87.9242 33.1708 88.7149 32.9865C89.3936 32.8276 90.0978 32.8109 90.7832 32.9375C91.4687 33.0641 92.1204 33.3312 92.6975 33.7221C92.8299 33.8032 92.9382 33.918 93.0114 34.0548C93.0846 34.1916 93.1201 34.3455 93.1141 34.5005C93.1141 35.6908 93.1141 36.881 93.1141 38.0713L93.107 38.0546Z" fill="#FEFEFE"/>
</g>
<defs>
<clipPath id="clip0_868_11571">
<rect width="90.9357" height="26" fill="white" transform="translate(72.5321 25)"/>
</clipPath>
</defs>
</svg>
