<svg width="45" height="44" viewBox="95.5 16 45 44" fill="none" xmlns="http://www.w3.org/2000/svg">
<path d="M117.784 43.0393C124.974 43.0393 130.803 37.2102 130.803 30.0196C130.803 22.8291 124.974 17 117.784 17C110.593 17 104.764 22.8291 104.764 30.0196C104.764 37.2102 110.593 43.0393 117.784 43.0393Z" fill="#00AED6"/>
<path fill-rule="evenodd" clip-rule="evenodd" d="M125.378 29.6398C125.27 28.0123 123.859 26.7104 122.232 26.8189H113.986C113.661 26.8189 113.444 26.6019 113.444 26.2764C113.444 25.9509 113.661 25.7339 113.986 25.7339H122.34C122.286 24.6489 121.473 23.5097 120.442 23.347C118.001 22.913 115.505 22.913 113.118 23.347C111.762 23.564 110.731 24.9202 110.514 26.2221C110.135 28.7718 110.135 31.3757 110.514 33.9254C110.786 35.3901 111.979 36.5836 113.498 36.8006C116.536 37.1803 119.574 37.1803 122.557 36.8006C123.914 36.6378 124.782 35.3901 125.053 34.0882C125.324 32.5692 125.433 31.1045 125.378 29.6398ZM122.666 31.43V31.9182C122.666 32.2437 122.449 32.4607 122.124 32.4607C121.798 32.4607 121.581 32.2437 121.581 31.9182V31.43C121.418 31.2672 121.31 31.0503 121.31 30.8333C121.31 30.3993 121.69 30.0195 122.124 30.0195C122.557 30.0195 122.937 30.3993 122.937 30.8333C122.937 31.0503 122.829 31.2672 122.666 31.43Z" fill="white"/>
<path d="M98.1457 56.0583C98.6882 56.872 99.6104 57.306 100.587 57.2518C101.726 57.2518 102.54 56.5465 102.54 55.5701V55.0276C101.943 55.6243 101.075 55.9498 100.207 55.8956C98.0915 55.9498 96.3555 54.3224 96.3013 52.2067C96.247 50.091 97.8745 48.355 99.9902 48.3008C100.044 48.3008 100.099 48.3008 100.153 48.3008C101.021 48.2465 101.889 48.572 102.54 49.1688V48.4635H104.493V55.5158C104.493 57.5773 102.865 58.9877 100.587 58.9877C99.0679 59.0962 97.6575 58.4452 96.681 57.2518L98.1457 56.0583ZM102.486 51.6642C102.486 50.8505 101.563 50.091 100.533 50.091C99.2307 50.091 98.3627 50.9047 98.3627 52.0982C98.3085 53.1289 99.0679 54.0511 100.153 54.1596C100.261 54.1596 100.37 54.1596 100.478 54.1596C101.618 54.1596 102.54 53.4544 102.54 52.5864V51.6642H102.486Z" fill="black"/>
<path d="M109.592 48.248C111.979 48.248 113.661 49.9297 113.661 52.0997C113.661 54.2696 111.925 55.9513 109.592 55.9513C107.476 56.0598 105.632 54.4324 105.524 52.3167C105.415 50.201 106.988 48.3565 109.104 48.248C109.267 48.248 109.429 48.248 109.592 48.248ZM109.592 50.0382C108.453 50.0382 107.531 50.9605 107.531 52.0997C107.531 53.2389 108.453 54.1611 109.592 54.1611C110.731 54.1611 111.654 53.2389 111.654 52.0997C111.708 51.0147 110.84 50.0925 109.809 50.0382C109.701 50.0382 109.646 50.0382 109.592 50.0382Z" fill="black"/>
<path d="M114.8 48.465H116.753V49.116H116.807C117.458 48.5193 118.272 48.248 119.14 48.248C121.256 48.3023 122.937 50.0382 122.883 52.1539C122.829 54.2154 121.201 55.8428 119.14 55.8971C118.326 55.8971 117.512 55.6258 116.861 55.1376H116.807V58.7722H114.8V48.465ZM118.76 50.0382C117.675 50.0382 116.807 50.7977 116.807 51.6115V52.5337C116.807 53.4016 117.675 54.1069 118.814 54.1069C119.954 54.1069 120.876 53.1847 120.822 52.0454C120.822 50.9605 119.899 50.0382 118.76 50.0382Z" fill="black"/>
<path d="M126.68 51.3945C127.982 51.2317 128.416 51.0147 128.416 50.635C128.416 50.1467 127.928 49.8755 127.114 49.8755C126.301 49.8213 125.487 50.3637 125.324 51.1775L123.425 50.7977C123.697 49.333 125.216 48.248 127.114 48.248C129.23 48.248 130.532 49.333 130.532 51.069V55.6801H128.633V54.8664C128.037 55.5716 127.114 55.9513 126.192 55.8428C124.619 55.8428 123.48 54.9749 123.48 53.6729C123.48 52.3709 124.348 51.7199 126.68 51.3945ZM128.525 52.1539C128.308 52.4252 127.928 52.5879 126.952 52.7507C125.758 52.9677 125.324 53.1847 125.324 53.6186C125.324 54.0526 125.704 54.2696 126.463 54.2696C127.603 54.2696 128.525 53.7271 128.525 53.0219V52.1539Z" fill="black"/>
<path d="M134.112 55.2992L130.803 48.4639H133.027L135.252 53.1835H135.306L137.476 48.4639H139.7L134.709 58.7711H132.431L134.112 55.2992Z" fill="black"/>
</svg>
