<svg width="33" height="42" viewBox="0 0 33 42" fill="none" xmlns="http://www.w3.org/2000/svg">
<path fill-rule="evenodd" clip-rule="evenodd" d="M23.0983 5.54053L26.2885 14.758C26.4721 15.2956 26.4895 15.9441 26.2885 16.4577L23.4077 22.2211L20.2332 18.2782L19.5202 16.1459C19.4092 15.7271 19.4256 15.2848 19.5673 14.8754L20.0992 13.7108C20.215 13.4569 20.4532 13.4428 20.5392 13.6538L22.0148 17.8894C22.3076 17.7331 22.5111 16.9871 22.325 16.4213L20.8907 12.4362C20.6426 11.5678 20.9346 10.6836 21.502 9.78945C21.6318 9.57275 21.8196 9.58019 21.9155 9.77953L23.5971 14.6124C23.9519 14.49 24.0876 13.7662 23.8452 13.0458L22.2406 8.41395C22.1461 7.82584 22.2224 7.22296 22.4606 6.677C22.4606 6.677 23.0876 5.5488 23.0983 5.54053ZM24.6765 21.6992C25.4324 21.8844 26.6806 21.8861 28.0486 21.8422C28.4902 21.947 28.873 22.2208 29.1148 22.6049C30.3141 22.6181 30.8261 23.1458 30.7012 24.1524C30.3439 23.2541 29.238 23.1508 28.7236 23.8133C29.0676 24.1061 29.4622 24.1201 29.908 23.8464C29.9585 24.3186 29.3927 24.5999 28.171 24.6776C27.4035 24.7901 24.9014 26.8596 23.3572 28.24C21.8201 29.3895 20.055 30.1972 18.1803 30.6089L5.69735 34.407C5.43598 34.4782 5.29041 34.1961 5.43929 34.1018C6.09023 33.5278 7.09353 32.9629 8.26721 32.4013C8.20601 32.2416 7.8826 32.2052 7.38799 32.2482L3.01335 34.0762C3.15396 33.5493 3.7743 32.9439 4.99843 32.3095L11.6981 28.2781C11.8817 28.1805 11.9264 28.0779 11.7808 27.9679C11.153 27.9927 8.74198 25.3616 6.78502 23.4063C6.45104 23.0688 6.24239 22.6272 6.19362 22.1549V20.7306C6.20107 20.5122 6.30694 20.5064 6.50876 20.705L11.3532 25.3914C11.8743 25.8587 11.8371 24.8951 11.4632 24.5461L5.56253 18.5875C5.28182 18.2445 5.09944 17.8317 5.03483 17.3932V15.8771C5.03483 15.6926 5.1316 15.6529 5.34086 15.8506L11.3946 21.7231C11.8445 22.1078 11.7924 21.0614 11.3896 20.6297L4.68661 14.0499C4.23831 13.5471 3.97611 13.0243 3.8843 12.4834V10.8027C3.8843 10.6 4.01995 10.5794 4.27636 10.8217L11.3896 17.7563C11.7858 18.1409 12.0364 17.37 11.3896 16.7439L3.47405 8.83495C3.14817 8.48012 2.77762 7.90693 2.74122 7.42885L2.76273 5.6737C2.77596 5.41977 2.99432 5.37511 3.18539 5.55211L11.3739 13.5189C11.8776 14.0499 11.8917 13.2526 11.5261 12.6918L2.20359 3.45702C1.49806 2.59185 1.66762 1.2577 1.71725 0.156807C1.72469 -0.0086175 1.84628 -0.0565905 1.99433 0.0782301L13.8387 11.643L23.7641 24.1177C23.8857 24.2591 24.0189 24.3112 24.1661 24.2417L24.1562 23.6884L23.669 22.8571L25.1396 22.5321L24.6781 21.6975L24.6765 21.6992ZM27.5854 22.6156L28.3621 22.6801C28.1024 23.0242 27.7608 23.0449 27.3232 22.69L27.425 22.4725L27.5854 22.6156Z" fill="#F5303E"/>
<path fill-rule="evenodd" clip-rule="evenodd" d="M8.03396 30.4832C4.5493 30.1432 -0.0296318 30.3426 0.000144479 36.5303C0.0828565 40.0472 1.90831 41.8644 5.71223 42C7.27218 42 8.761 41.7006 10.1621 41.0356L10.1423 36.0935C9.62865 35.3491 8.87514 35.1936 7.89914 35.5774L4.69653 36.852V37.1225H7.83959L7.89914 39.4649C4.95542 40.3391 2.58655 39.5575 2.59978 36.4484C2.55823 35.6342 2.69954 34.8211 3.01334 34.0687C3.15643 33.5435 3.77677 32.9397 4.99843 32.307L8.03231 30.4807L8.03396 30.4832Z" fill="#003563"/>
<path fill-rule="evenodd" clip-rule="evenodd" d="M23.0073 30.264H24.5871C24.8253 30.264 25.0561 30.4054 25.2422 30.6494L30.2322 37.4674V30.4302C30.2301 30.4092 30.2322 30.3879 30.2384 30.3677C30.2447 30.3475 30.255 30.3288 30.2686 30.3126C30.2823 30.2965 30.2991 30.2833 30.318 30.2738C30.3369 30.2643 30.3575 30.2587 30.3786 30.2574L31.8674 30.2623C32.3546 30.2623 32.793 30.7313 32.8013 31.1531L32.8062 41.4922C32.8062 41.6675 32.7235 41.8015 32.5126 41.8048L30.7599 41.8098C30.4026 41.8098 30.1363 41.4334 29.8915 41.1324L25.3944 34.9463L25.3845 41.5542C25.3845 41.7097 25.3092 41.8139 25.1297 41.8147L23.6889 41.8098C23.2455 41.8048 22.7832 41.2597 22.7791 40.914V30.4923C22.7791 30.3525 22.8394 30.2648 23.0049 30.2632L23.0073 30.264Z" fill="#003563"/>
<path fill-rule="evenodd" clip-rule="evenodd" d="M16.0091 32.2797L19.9751 31.4096C21.2364 32.3467 21.5665 34.5311 20.7584 36.302C20.0925 37.5129 19.0992 38.1969 17.7195 38.2614H14.3846L14.3606 41.5534C14.373 41.732 14.2779 41.8271 14.0455 41.8205L12.7221 41.8255C12.2994 41.7692 11.8296 41.2093 11.8048 40.8123L11.8089 33.4451C11.8089 33.2714 12.2167 33.0274 12.6832 32.9099L13.8685 32.6519C14.1613 32.6014 14.4565 32.6693 14.4656 32.7859L14.4847 36.1423L17.0264 36.1374C17.8709 36.1258 18.5458 35.5236 18.5648 34.3103C18.5648 33.0919 18.0967 32.3806 16.0181 32.532L16.0091 32.2797Z" fill="#003563"/>
</svg>
