<svg width="80" height="35.0241" viewBox="78 20.4883 80 35.0241" fill="none" xmlns="http://www.w3.org/2000/svg">
<g clip-path="url(#clip0_868_11583)">
<path fill-rule="evenodd" clip-rule="evenodd" d="M102.955 20.4956L79.0556 23.6826C79.0556 23.6826 78 23.8052 78 25.0771V47.7742C78 47.7742 78.1442 50.4305 81.1798 50.4305H108.267C108.267 50.4305 110.681 49.8537 110.681 47.4367V28.7083C110.681 28.7083 110.728 26.052 107.543 26.052H81.4221C81.1147 25.987 80.8319 25.8363 80.6066 25.6173C80.3813 25.3984 80.2225 25.1201 80.1487 24.8147C80.0694 24.3936 80.2396 24.3503 80.6852 24.3503H104.67V21.7632C104.67 21.7632 104.585 20.3759 102.955 20.4956Z" fill="#E8451E"/>
<path fill-rule="evenodd" clip-rule="evenodd" d="M94.8249 46.5791C92.8435 46.5791 91.3841 45.7716 89.231 43.6416C89.0547 43.4576 88.9572 43.2119 88.9593 42.957C88.9615 42.7021 89.063 42.4582 89.2424 42.2771C89.4218 42.096 89.6648 41.9921 89.9197 41.9876C90.1745 41.9831 90.4211 42.0783 90.6068 42.2529C92.8738 44.4939 93.9236 45.0505 95.7349 44.5602C96.7876 44.2718 97.7322 42.9335 97.787 41.3948C97.8302 40.1993 96.9866 39.4192 95.2806 39.0774C92.2176 38.4645 90.4092 37.2935 89.9074 35.5947C89.5036 34.2276 90.0343 32.7005 91.3624 31.4127L91.4172 31.3636C94.2726 28.977 97.588 30.7551 98.9421 32.0299C99.1228 32.2093 99.2264 32.4521 99.2308 32.7067C99.2353 32.9613 99.1402 33.2075 98.9659 33.3931C98.7916 33.5787 98.5517 33.689 98.2973 33.7005C98.043 33.712 97.7942 33.6238 97.6038 33.4547C97.4899 33.348 94.9244 31.0175 92.7007 32.8403C91.9407 33.5917 91.5975 34.4151 91.785 35.0467C92.0561 35.9668 93.4347 36.7196 95.6656 37.1666C99.4569 37.9252 99.7799 40.4301 99.7424 41.4713C99.6617 43.7397 97.7639 46.2806 95.9829 46.5056C95.5988 46.5545 95.2121 46.5791 94.8249 46.5791Z" fill="white"/>
<path fill-rule="evenodd" clip-rule="evenodd" d="M120.733 25.915C120.301 25.6509 119.833 25.4503 119.343 25.3194C118.334 25.031 117.606 24.6618 117.258 24.1903C116.948 23.7807 116.948 23.2471 117.32 22.5636C117.531 22.154 118.041 21.8944 118.697 21.8425C119.528 21.8096 120.352 22.0025 121.081 22.4006C121.186 22.4532 121.308 22.4619 121.42 22.4247C121.531 22.3875 121.623 22.3075 121.676 22.2023C121.728 22.0972 121.737 21.9754 121.7 21.8638C121.663 21.7523 121.583 21.6601 121.478 21.6075C120.461 21.0854 119.459 20.8864 118.624 20.9499C117.655 21.0234 116.893 21.446 116.527 22.1281C115.967 23.1592 116.005 24.0028 116.527 24.7094C117.01 25.3425 117.891 25.827 119.095 26.1616C119.507 26.2763 119.903 26.443 120.273 26.6577C120.745 26.9461 121.055 27.2792 121.205 27.6383C121.349 27.9773 121.369 28.3559 121.263 28.7083C121.205 28.891 121.125 29.0662 121.026 29.2304C121.026 29.2549 121.002 29.2794 120.977 29.3169C120.617 29.8505 120.034 30.123 119.326 30.123C118.544 30.123 117.588 29.813 116.572 29.1929C116.427 29.1063 116.283 29.0184 116.162 28.9318C116.063 28.8661 115.943 28.8422 115.826 28.8654C115.71 28.8887 115.608 28.9572 115.542 29.0559C115.476 29.1545 115.452 29.2753 115.476 29.3916C115.499 29.5079 115.567 29.6102 115.666 29.676C115.812 29.7678 115.952 29.8674 116.087 29.9745C117.254 30.6825 118.358 31.0286 119.301 31.0286C120.32 31.0286 121.163 30.6321 121.697 29.8375C121.718 29.7942 121.743 29.7527 121.772 29.7135C121.916 29.4814 122.028 29.2311 122.106 28.9693C122.273 28.421 122.238 27.8312 122.007 27.3066C121.739 26.7208 121.293 26.234 120.733 25.915Z" fill="#E8451E"/>
<path fill-rule="evenodd" clip-rule="evenodd" d="M127.572 24.9348C127.064 24.81 126.531 24.8269 126.032 24.9838C125.463 25.1595 124.939 25.4545 124.493 25.8491V21.3728C124.487 21.2589 124.437 21.1517 124.354 21.0733C124.271 20.9949 124.161 20.9512 124.047 20.9512C123.933 20.9512 123.823 20.9949 123.74 21.0733C123.657 21.1517 123.607 21.2589 123.6 21.3728V30.5936C123.607 30.7076 123.657 30.8147 123.74 30.8931C123.823 30.9716 123.933 31.0152 124.047 31.0152C124.161 31.0152 124.271 30.9716 124.354 30.8931C124.437 30.8147 124.487 30.7076 124.493 30.5936V27.1426C124.502 27.1357 124.51 27.128 124.518 27.1196C125.077 26.436 125.697 26.0149 126.293 25.8289C126.634 25.7182 127 25.7052 127.348 25.7914C127.632 25.8683 127.881 26.0391 128.055 26.2759C128.249 26.5759 128.344 26.9288 128.328 27.2854V30.5835C128.328 30.702 128.375 30.8157 128.458 30.8996C128.542 30.9834 128.656 31.0305 128.775 31.0305C128.893 31.0305 129.007 30.9834 129.091 30.8996C129.175 30.8157 129.222 30.702 129.222 30.5835V27.2811C129.237 26.7417 129.08 26.2114 128.775 25.7669C128.482 25.3583 128.057 25.0641 127.572 24.9348Z" fill="#E8451E"/>
<path fill-rule="evenodd" clip-rule="evenodd" d="M135.166 29.5013C134.75 29.9142 134.188 30.146 133.602 30.146C133.016 30.146 132.454 29.9142 132.038 29.5013C131.625 29.0855 131.393 28.5233 131.393 27.9373C131.393 27.3514 131.625 26.7892 132.038 26.3734C132.455 25.9624 133.017 25.7311 133.603 25.7288C134.04 25.7291 134.467 25.8588 134.83 26.1017C135.193 26.3445 135.476 26.6896 135.644 27.0932C135.811 27.4969 135.855 27.9411 135.77 28.3696C135.685 28.7982 135.475 29.192 135.166 29.5013ZM133.603 24.8477C132.795 24.8651 132.026 25.1983 131.461 25.7758C130.896 26.3533 130.579 27.1293 130.579 27.9373C130.579 28.7454 130.896 29.5213 131.461 30.0988C132.026 30.6764 132.795 31.0096 133.603 31.027C134.411 31.0096 135.179 30.6764 135.745 30.0988C136.31 29.5213 136.626 28.7454 136.626 27.9373C136.626 27.1293 136.31 26.3533 135.745 25.7758C135.179 25.1983 134.411 24.8651 133.603 24.8477Z" fill="#E8451E"/>
<path fill-rule="evenodd" clip-rule="evenodd" d="M142.686 29.5013C142.27 29.914 141.709 30.147 141.123 30.1502C140.686 30.1499 140.259 30.0202 139.896 29.7773C139.533 29.5345 139.25 29.1895 139.082 28.7858C138.915 28.3821 138.871 27.9379 138.956 27.5094C139.041 27.0808 139.251 26.687 139.56 26.3777C139.977 25.9666 140.538 25.7351 141.123 25.7331C141.559 25.7342 141.985 25.8643 142.348 26.1069C142.71 26.3496 142.992 26.6939 143.159 27.0967C143.327 27.4995 143.371 27.9427 143.287 28.3705C143.202 28.7984 142.994 29.1918 142.686 29.5013ZM141.135 24.8477C140.729 24.8472 140.327 24.927 139.953 25.0824C139.578 25.2378 139.238 25.4658 138.951 25.7533C138.915 25.7831 138.882 25.8165 138.852 25.8528V25.2947C138.852 25.1761 138.805 25.0624 138.721 24.9786C138.637 24.8948 138.523 24.8477 138.405 24.8477C138.286 24.8477 138.173 24.8948 138.089 24.9786C138.005 25.0624 137.958 25.1761 137.958 25.2947V34.0799C137.958 34.1985 138.005 34.3122 138.089 34.396C138.173 34.4799 138.286 34.527 138.405 34.527C138.523 34.527 138.637 34.4799 138.721 34.396C138.805 34.3122 138.852 34.1985 138.852 34.0799V30.0219C138.888 30.0521 138.921 30.0854 138.951 30.1214C139.311 30.4805 139.753 30.7454 140.239 30.8928C140.725 31.0401 141.24 31.0653 141.738 30.9661C142.237 30.8669 142.703 30.6464 143.095 30.324C143.488 30.0017 143.795 29.5875 143.989 29.1182C144.183 28.6489 144.259 28.1389 144.209 27.6333C144.159 27.1278 143.985 26.6424 143.703 26.2201C143.421 25.7978 143.039 25.4516 142.591 25.2122C142.143 24.9728 141.643 24.8476 141.135 24.8477Z" fill="#E8451E"/>
<path fill-rule="evenodd" clip-rule="evenodd" d="M146.499 27.2544C146.61 26.8934 146.808 26.5654 147.076 26.2997C147.251 26.1225 147.46 25.9817 147.69 25.8856C147.92 25.7896 148.167 25.7401 148.416 25.7401C148.665 25.7401 148.912 25.7896 149.142 25.8856C149.372 25.9817 149.58 26.1225 149.756 26.2997C150.022 26.5705 150.226 26.8963 150.353 27.2544H146.499ZM150.384 25.6681C150.129 25.4068 149.824 25.1996 149.487 25.0588C149.15 24.9181 148.788 24.8467 148.423 24.849C148.057 24.8429 147.694 24.9125 147.357 25.0535C147.019 25.1944 146.715 25.4037 146.462 25.6681C145.395 26.8218 145.408 28.0634 145.829 29.3166C146.017 29.8508 146.386 30.3026 146.871 30.5943C147.365 30.9023 147.941 31.0532 148.523 31.0269C149.233 31.0007 149.931 30.8407 150.582 30.5554C150.639 30.5349 150.691 30.5029 150.736 30.4615C150.78 30.4201 150.815 30.3701 150.84 30.3146C150.864 30.259 150.877 30.1991 150.877 30.1384C150.877 30.0778 150.865 30.0177 150.841 29.9619C150.818 29.9061 150.783 29.8557 150.739 29.8138C150.695 29.7719 150.643 29.7394 150.587 29.7183C150.53 29.6972 150.469 29.6878 150.409 29.6909C150.348 29.694 150.289 29.7094 150.234 29.7362C149.69 29.986 149.102 30.1252 148.504 30.1458C148.095 30.1604 147.69 30.0573 147.337 29.8487C147.025 29.6358 146.783 29.3346 146.642 28.9835C146.547 28.7183 146.481 28.4437 146.444 28.1644H150.552C150.775 28.1644 151.508 28.2134 151.128 26.9602C150.992 26.4731 150.735 26.0282 150.381 25.6667L150.384 25.6681Z" fill="#E8451E"/>
<path fill-rule="evenodd" clip-rule="evenodd" d="M153.277 27.2548C153.387 26.8936 153.585 26.5654 153.854 26.3002C154.029 26.1228 154.238 25.9821 154.468 25.886C154.698 25.7899 154.945 25.7404 155.194 25.7404C155.444 25.7404 155.691 25.7899 155.921 25.886C156.151 25.9821 156.36 26.1228 156.535 26.3002C156.801 26.571 157.004 26.8969 157.13 27.2548H153.277ZM158.004 27.7206V27.3947C157.984 27.248 157.951 27.1032 157.906 26.9621C157.772 26.4734 157.515 26.0268 157.161 25.6642C156.906 25.4028 156.601 25.1955 156.264 25.0547C155.928 24.914 155.566 24.8427 155.201 24.8451C154.835 24.8389 154.472 24.9085 154.135 25.0495C153.797 25.1904 153.492 25.3997 153.24 25.6642C152.173 26.8179 152.184 28.0595 152.607 29.3127C152.795 29.8471 153.163 30.2991 153.649 30.5904C154.143 30.8984 154.719 31.0493 155.3 31.023C156.01 30.9968 156.709 30.8368 157.36 30.5515C157.417 30.531 157.469 30.499 157.513 30.4576C157.558 30.4162 157.593 30.3662 157.617 30.3107C157.642 30.2551 157.654 30.1952 157.655 30.1346C157.655 30.0739 157.643 30.0138 157.619 29.958C157.596 29.9022 157.561 29.8518 157.517 29.8099C157.473 29.768 157.421 29.7355 157.364 29.7144C157.308 29.6933 157.247 29.684 157.186 29.687C157.126 29.6901 157.067 29.7056 157.012 29.7324C156.468 29.9821 155.88 30.1213 155.282 30.1419C154.872 30.1565 154.467 30.0534 154.115 29.8448C153.802 29.6323 153.56 29.331 153.42 28.9796C153.325 28.7143 153.258 28.4397 153.221 28.1605H157.329C157.492 28.1619 157.925 28.1879 158 27.7206H158.004Z" fill="#E8451E"/>
<path fill-rule="evenodd" clip-rule="evenodd" d="M123.031 42.5527H118.393V35.8138H122.575C122.647 35.8133 122.719 35.8172 122.79 35.8253C123.427 35.896 126.211 36.3777 126.211 39.3628C126.211 42.5498 123.028 42.5498 123.028 42.5498L123.031 42.5527ZM122.212 33.2454H115.783V50.4308H118.393V45.3013H122.491C123.867 45.3147 125.221 44.9581 126.411 44.2688C127.817 43.4367 129.222 41.9701 129.222 39.4349C129.222 37.0569 127.987 35.5485 126.675 34.6154C125.365 33.7066 123.806 33.2269 122.212 33.2426V33.2454Z" fill="#E8451E"/>
<path fill-rule="evenodd" clip-rule="evenodd" d="M135.684 48.0637C134.919 48.0637 134.171 47.837 133.535 47.4123C132.9 46.9875 132.404 46.3838 132.111 45.6774C131.818 44.971 131.741 44.1937 131.89 43.4436C132.039 42.6935 132.406 42.0043 132.947 41.4632C133.487 40.922 134.176 40.5532 134.926 40.4033C135.675 40.2534 136.453 40.3292 137.16 40.6211C137.867 40.9129 138.471 41.4078 138.897 42.043C139.322 42.6783 139.55 43.4255 139.551 44.1902V44.2003C139.551 45.2255 139.143 46.2083 138.417 46.9328C137.692 47.6573 136.709 48.0641 135.684 48.0637ZM139.551 38.2142V39.4241C138.649 38.692 137.558 38.2305 136.405 38.093C135.251 37.9555 134.082 38.1477 133.034 38.6472C131.985 39.1468 131.099 39.9332 130.479 40.9155C129.859 41.8978 129.53 43.0357 129.53 44.1974C129.53 45.3591 129.859 46.497 130.479 47.4793C131.099 48.4616 131.985 49.2481 133.034 49.7477C134.082 50.2472 135.251 50.4393 136.405 50.3018C137.558 50.1643 138.649 49.7028 139.551 48.9707V50.3393H142.159V38.2142H139.551Z" fill="#E8451E"/>
<path fill-rule="evenodd" clip-rule="evenodd" d="M143.333 38.0488H146.819L150.911 45.8794L154.858 38.0488H158V38.0705L148.629 55.5125H145.559L149.137 49.0303L143.333 38.0488Z" fill="#E8451E"/>
</g>
<defs>
<clipPath id="clip0_868_11583">
<rect width="80" height="35.0241" fill="white" transform="translate(78 20.4883)"/>
</clipPath>
</defs>
</svg>
